HIERARCHY
ROOT Hips
{
	OFFSET 0.00000 0.00000 0.00000
	CHANNELS 6 Xposition Yposition Zposition Zrotation Yrotation Xrotation 
	JOINT LHipJoint
	{
		OFFSET 0 0 0
		CHANNELS 3 Zrotation Yrotation Xrotation
		JOINT LeftHip
		{
			OFFSET 1.65412 -1.54119 0.76744
			CHANNELS 3 Zrotation Yrotation Xrotation
			JOINT LeftKnee
			{
				OFFSET 2.19550 -6.03209 0.00000
				CHANNELS 3 Zrotation Yrotation Xrotation
				JOINT LeftAnkle
				{
					OFFSET 2.38814 -6.56138 0.00000
					CHANNELS 3 Zrotation Yrotation Xrotation
					JOINT LeftToe
					{
						OFFSET 0.17337 -0.47632 1.75875
						CHANNELS 3 Zrotation Yrotation Xrotation
						End Site
						{
							OFFSET 0.00000 -0.00000 0.92050
						}
					}
				}
			}
		}
	}
	JOINT RHipJoint
	{
		OFFSET 0 0 0
		CHANNELS 3 Zrotation Yrotation Xrotation
		JOINT RightHip
		{
			OFFSET -1.40291 -1.54119 0.76744
			CHANNELS 3 Zrotation Yrotation Xrotation
			JOINT RightKnee
			{
				OFFSET -2.22156 -6.10370 0.00000
				CHANNELS 3 Zrotation Yrotation Xrotation
				JOINT RightAnkle
				{
					OFFSET -2.46840 -6.78188 0.00000
					CHANNELS 3 Zrotation Yrotation Xrotation
					JOINT RightToe
					{
						OFFSET -0.15659 -0.43024 1.84117
						CHANNELS 3 Zrotation Yrotation Xrotation
						End Site
						{
							OFFSET -0.00000 -0.00000 0.95587
						}
					}
				}
			}
		}
	}
	JOINT lowerback
	{
		OFFSET 0 0 0
		CHANNELS 3 Zrotation Yrotation Xrotation
		JOINT Chest
		{
			OFFSET -0.01936 1.82120 -0.32061
			CHANNELS 3 Zrotation Yrotation Xrotation
			JOINT Chest2
			{
				OFFSET -0.00532 1.85767 -0.00071
				CHANNELS 3 Zrotation Yrotation Xrotation
				JOINT lowerneck
				{
					OFFSET 0 0 0
					CHANNELS 3 Zrotation Yrotation Xrotation
					JOINT Neck
					{
						OFFSET -0.10687 1.58194 0.10810
						CHANNELS 3 Zrotation Yrotation Xrotation
						JOINT Head
						{
							OFFSET 0.15346 1.57382 -0.25612
							CHANNELS 3 Zrotation Yrotation Xrotation
							End Site
							{
								OFFSET 0.05334 1.61251 -0.10513
							}
						}
					}
				}
				JOINT LeftCollar
				{
					OFFSET 0 0 0
					CHANNELS 3 Zrotation Yrotation Xrotation
					JOINT LeftShoulder
					{
						OFFSET 2.85758 0.89498 -0.01485
CHANNELS 3 Zrotation Xrotation Yrotation
						JOINT LeftElbow
						{
OFFSET 0 -4.791850 -0.000000
CHANNELS 3 Zrotation Xrotation Yrotation
							JOINT LeftWrist
							{
OFFSET 0 -2.655530 0.000000
CHANNELS 3 Zrotation Xrotation Yrotation
								JOINT lhand
								{
									OFFSET 0 0 0
CHANNELS 3 Zrotation Xrotation Yrotation
									JOINT LFingers
									{
OFFSET 0 -0.743900 0.000000
CHANNELS 3 Zrotation Xrotation Yrotation
										End Site
										{
OFFSET 0 -0.599750 0.000000
										}
									}
								}
								JOINT LThumb
								{
OFFSET 0 0.000000 0.000000
CHANNELS 3 Zrotation Xrotation Yrotation
									End Site
									{
OFFSET 0 -0.608910 0.608910
									}
								}
							}
						}
					}
				}
				JOINT RightCollar
				{
					OFFSET 0 0 0
					CHANNELS 3 Zrotation Yrotation Xrotation
					JOINT RightShoulder
					{
						OFFSET -2.93906 0.88031 0.02490
CHANNELS 3 Zrotation Xrotation Yrotation
						JOINT RightElbow
						{
OFFSET 0 -4.772540 -0.000000
CHANNELS 3 Zrotation Xrotation Yrotation
							JOINT RightWrist
							{
OFFSET 0 -2.759950 -0.000000
CHANNELS 3 Zrotation Xrotation Yrotation
								JOINT rhand
								{
									OFFSET 0 0 0
CHANNELS 3 Zrotation Xrotation Yrotation
									JOINT RFingers
									{
OFFSET 0 -0.701620 0.000000
CHANNELS 3 Zrotation Xrotation Yrotation
										End Site
										{
OFFSET 0 -0.565660 0.000000
										}
									}
								}
								JOINT RThumb
								{
OFFSET 0 0.000000 0.000000
CHANNELS 3 Zrotation Xrotation Yrotation
									End Site
									{
OFFSET 0 -0.574300 0.574300
									}
								}
							}
						}
					}
				}
			}
		}
	}
}
MOTION
Frames: 5
Frame Time: 0.008333333333333333
0.310329 16.150937 -0.347878 0.224726 -3.524061 0.088831 0.000000 0.000000 0.000000 -17.964662 -6.603056 6.417555 0.077502 1.795957 4.942014 -0.120183 8.931595 -10.171638 0.270467 -3.345229 -9.241432 0.000000 0.000000 0.000000 16.887481 12.570203 1.160457 -0.787630 -5.665649 15.817336 -0.121366 -8.381207 -14.071761 -0.134100 2.359732 -6.500910 -0.425267 0.776173 12.450686 0.114078 0.977160 -0.080162 0.181536 0.493080 -7.089816 -12.924232 -6.027271 -11.690601 13.456053 -7.203532 4.366604 5.751137 -3.162969 4.194836 0.000000 0.000000 0.000000 53.650471 3.262776 -100.769597 103.244596 -59.326655 71.444217 0.068424 -5.055973 -3.464604 0.000000 0.000000 0.000000 -7.125000 0.000000 0.000000 -21.264524 32.844972 -6.738466 0.000000 0.000000 0.000000 -78.468209 -44.442049 -13.780151 -20.886217 -31.695325 -5.990071 -23.999205 -33.781186 -1.929454 0.000000 0.000000 0.000000 7.125000 0.000000 0.000000 1.993060 27.866046 0.830853
0.238248 16.114841 -0.734146 1.015749 -0.618062 -2.674966 0.000000 0.000000 0.000000 -18.928666 -9.122549 7.288496 0.130042 2.322879 6.398960 -0.213552 9.615777 -8.945588 0.387625 -3.997724 -11.070295 0.000000 0.000000 0.000000 16.680964 11.488853 1.561055 -1.047596 -6.508889 18.268241 -0.111973 -9.632091 -15.471792 -0.054997 1.512739 -4.160847 -0.787399 0.346547 17.211975 -0.097719 0.304431 2.846891 0.274539 0.163992 -6.596339 -12.683156 -5.253298 -11.472559 13.471099 -5.891866 0.541557 5.845637 -2.543678 2.836435 0.000000 0.000000 0.000000 52.283361 -19.467686 -59.130522 68.506652 -58.156853 41.503996 2.455355 -34.583051 -11.295572 0.000000 0.000000 0.000000 -7.125000 0.000000 0.000000 -21.498375 40.300303 -2.631441 0.000000 0.000000 0.000000 -82.586114 -54.141136 -33.009728 -16.254680 -25.864364 -3.756559 -27.044736 -30.151626 -1.497677 0.000000 0.000000 0.000000 7.125000 0.000000 0.000000 -0.364116 28.298078 -0.148309
0.174258 16.170028 -1.164626 0.790712 -0.068979 0.162166 0.000000 0.000000 0.000000 -17.527527 -11.089332 2.272887 0.152494 2.515786 6.933565 -0.268971 9.819558 -7.413638 0.411181 -4.116046 -11.403364 0.000000 0.000000 0.000000 16.183509 13.049097 -3.161888 -1.064752 -6.560176 18.418699 0.050470 -10.517098 -14.165541 -0.031721 1.149250 -3.159573 -0.940932 0.259881 19.624583 -0.421104 0.112207 3.517238 0.054390 0.071171 -7.173097 -11.502449 -4.338477 -14.272587 13.793933 -4.367128 -1.691920 5.852703 -1.693850 2.408132 0.000000 0.000000 0.000000 55.244486 -48.178938 -0.421477 29.224402 -40.212889 10.907725 3.586449 -54.238913 -16.792887 0.000000 0.000000 0.000000 -7.125000 0.000000 0.000000 -22.512478 45.515346 0.301812 0.000000 0.000000 0.000000 -92.461570 -63.284062 -64.246979 -13.279977 -21.695782 -2.556017 -23.897576 -29.788931 -3.968697 0.000000 0.000000 0.000000 7.125000 0.000000 0.000000 2.066537 25.640117 0.970072
0.150000 16.219770 -1.297900 -0.076750 -0.799977 2.246868 0.000000 0.000000 0.000000 -15.947334 -10.497894 0.358363 0.081770 1.844599 5.076369 -0.308041 10.082211 -6.315325 0.308991 -3.573474 -9.879591 0.000000 0.000000 0.000000 16.625303 13.883444 -4.849164 -0.839943 -5.846090 16.338628 0.154221 -10.700067 -12.574162 -0.016021 0.814809 -2.239339 -1.297212 0.803671 20.362064 -0.289178 0.743637 3.248955 0.229025 0.387219 -7.871163 -12.277371 -5.301801 -15.499597 15.010261 -5.488396 -1.435997 6.268944 -2.158758 2.893801 0.000000 0.000000 0.000000 75.941923 -53.756958 41.130510 19.438827 -29.959816 5.248384 4.627209 -50.341856 -17.551310 0.000000 0.000000 0.000000 -7.125000 0.000000 0.000000 -21.905403 46.345996 0.763884 0.000000 0.000000 0.000000 -96.681328 -61.440485 -84.902824 -11.165035 -18.540697 -1.828042 -23.841598 -26.079557 -6.687431 0.000000 0.000000 0.000000 7.125000 0.000000 0.000000 2.142838 22.676434 1.151819
0.149567 16.232161 -1.253611 -0.036211 1.093112 2.848452 0.000000 0.000000 0.000000 -15.919781 -11.999087 0.697755 0.044553 1.362253 3.745993 -0.340394 10.378893 -5.369911 0.330025 -3.692277 -10.212532 0.000000 0.000000 0.000000 16.466952 13.210470 -5.013633 -0.805286 -5.727017 15.994530 0.202875 -11.529386 -13.105303 -0.015673 0.807292 -2.218647 -1.558986 0.772731 19.951456 -0.267105 0.654575 2.611496 0.424767 0.359032 -8.348679 -12.402604 -6.934372 -15.691272 15.032565 -7.992282 1.941541 6.027596 -3.341565 4.283516 0.000000 0.000000 0.000000 83.517155 -48.356378 48.550222 17.122443 -27.018796 4.142833 2.822339 -47.334855 -16.912611 0.000000 0.000000 0.000000 -7.125000 0.000000 0.000000 -23.231318 45.533084 0.323194 0.000000 0.000000 0.000000 -91.372360 -55.266383 -83.274058 -10.952133 -18.214846 -1.760936 -24.247069 -22.940028 -7.040349 0.000000 0.000000 0.000000 7.125000 0.000000 0.000000 1.853823 22.267513 1.013637
